<svg id="visual" viewBox="0 0 900 600" width="900" height="600" xmlns="http://www.w3.org/2000/svg" xmlns:xlink="http://www.w3.org/1999/xlink" version="1.1"><rect width="900" height="600" fill="#001829"></rect><g><g transform="translate(782 549)"><path d="M0 -106.2L106.2 0L0 106.2L-106.2 0Z" fill="none" stroke="#297EA6" stroke-width="2"></path></g><g transform="translate(576 276)"><path d="M0 -70L70 0L0 70L-70 0Z" fill="none" stroke="#297EA6" stroke-width="2"></path></g><g transform="translate(30 22)"><path d="M0 -94L94 0L0 94L-94 0Z" fill="none" stroke="#297EA6" stroke-width="2"></path></g><g transform="translate(405 519)"><path d="M0 -72L72 0L0 72L-72 0Z" stroke="#297EA6" fill="none" stroke-width="2"></path></g><g transform="translate(165 323)"><path d="M0 -20L20 0L0 20L-20 0Z" stroke="#297EA6" fill="none" stroke-width="2"></path></g><g transform="translate(29 505)"><path d="M0 -58L58 0L0 58L-58 0Z" stroke="#297EA6" fill="none" stroke-width="2"></path></g><g transform="translate(420 60)"><path d="M0 -57L57 0L0 57L-57 0Z" stroke="#297EA6" fill="none" stroke-width="2"></path></g><g transform="translate(764 50)"><path d="M0 -20L20 0L0 20L-20 0Z" stroke="#297EA6" fill="none" stroke-width="2"></path></g><g transform="translate(842 250)"><path d="M0 -72L72 0L0 72L-72 0Z" stroke="#297EA6" fill="none" stroke-width="2"></path></g></g></svg>